<?xml version="1.0" encoding="utf-8"?>
<!-- Generator: Adobe Illustrator 24.3.0, SVG Export Plug-In . SVG Version: 6.00 Build 0)  -->
<svg version="1.1" id="Layer_1" xmlns="http://www.w3.org/2000/svg" xmlns:xlink="http://www.w3.org/1999/xlink" x="0px" y="0px"
	 viewBox="0 0 200 50" style="enable-background:new 0 0 200 50;" xml:space="preserve">
<style type="text/css">
	.st0{fill:#26BAAA;}
</style>
<path d="M79.1,13.2V4.4h13.2V0H74.7v30.8h17.6v-4.4H79.1v-8.8h13.2v-4.4L79.1,13.2z M65.9,23.1c0,2.2-1.1,3.3-3.3,3.3H55v-22h7.7
	c2.2,0,3.3,1.1,3.3,3.3L65.9,23.1z M50.5,0v30.8h12.1c5.1,0,7.7-2.6,7.7-7.7V7.7c0-5.1-2.6-7.7-7.7-7.7H50.5z M29.7,7.7
	c0-2.2,1.1-3.3,3.3-3.3h5.5c2.2,0,3.3,1.1,3.3,3.3v15.4c0,2.2-1.1,3.3-3.3,3.3H33c-2.2,0-3.3-1.1-3.3-3.3L29.7,7.7z M46.2,7.7
	c0-5.1-2.6-7.7-7.7-7.7H33c-5.1,0-7.7,2.6-7.7,7.7v15.4c0,5.1,2.6,7.7,7.7,7.7h5.5c5.1,0,7.7-2.6,7.7-7.7L46.2,7.7z M4.4,7.7
	c0-2.2,1.1-3.3,3.3-3.3h5.5c2.2,0,3.3,1.1,3.3,3.3v15.4c0,2.2-1.1,3.3-3.3,3.3H7.7c-2.2,0-3.3-1.1-3.3-3.3L4.4,7.7z M20.9,7.7
	c0-5.1-2.6-7.7-7.7-7.7H7.7C2.6,0,0,2.6,0,7.7v15.4c0,5.1,2.6,7.7,7.7,7.7h5.5c5.1,0,7.7-2.6,7.7-7.7L20.9,7.7z"/>
<path d="M189,2.2l5.4,17.6h-10.8L189,2.2z M190.8,0h-3.5L178,30.8h2.2l2.7-8.8h12.2l2.7,8.8h2.2L190.8,0z M173.6,0v30.8h2.2V0H173.6
	z M167,24.2c0,2.9-1.5,4.4-4.4,4.4h-11V2.2h11c2.9,0,4.4,1.5,4.4,4.4V24.2z M149.4,0v30.8h13.2c4.4,0,6.6-2.2,6.6-6.6V6.6
	c0-4.4-2.2-6.6-6.6-6.6H149.4z M129.7,14.3V2.2h15.4V0h-17.6v30.8h17.6v-2.2h-15.4V16.5h15.4v-2.2L129.7,14.3z M96.7,30.8h2.2V2.2
	l9.2,28.6h3.5l9.3-28.6v28.6h2.2V0h-3.7l-9.4,28.6L100.4,0h-3.7L96.7,30.8z"/>
<polygon class="st0" points="19.9,35.2 15.1,35.2 10.2,21.9 15.1,21.9 "/>
<path d="M186.9,47.9c1.1,0,1.6-0.5,1.6-1.4v-0.2c0-0.9-0.5-1.4-1.6-1.4h-0.8c-0.7,0-1.1-0.2-1.1-0.8v-0.2c0-0.6,0.4-0.9,1.1-0.9h2.4
	v-0.5h-2.4c-1.1,0-1.6,0.5-1.6,1.4v0.2c0,0.9,0.5,1.3,1.6,1.3h0.8c0.7,0,1.1,0.3,1.1,0.9v0.2c0,0.6-0.4,0.9-1.1,0.9h-2.4v0.5
	L186.9,47.9z M177.5,44.1c-0.1-0.5,0.3-1,0.9-1.1c0.1,0,0.1,0,0.2,0h1.1c0.6,0,1,0.4,1.1,0.9c0,0,0,0.1,0,0.1v0.8h-3.2L177.5,44.1z
	 M181.2,45.5v-1.3c0.1-0.8-0.4-1.5-1.2-1.6c-0.1,0-0.3,0-0.4,0h-1.1c-0.8-0.1-1.5,0.4-1.6,1.2c0,0.1,0,0.3,0,0.4v2.1
	c-0.1,0.8,0.4,1.5,1.2,1.6c0.1,0,0.3,0,0.4,0h2.5v-0.5h-2.4c-0.6,0-1-0.4-1.1-0.9c0,0,0-0.1,0-0.1v-0.8H181.2z M170.5,44.1
	c-0.1-0.5,0.3-1,0.9-1.1c0.1,0,0.1,0,0.2,0h2.1v-0.5h-2.1c-0.8-0.1-1.5,0.4-1.6,1.2c0,0.1,0,0.3,0,0.4v2.1c-0.1,0.8,0.4,1.5,1.2,1.6
	c0.1,0,0.3,0,0.4,0h2.1v-0.5h-2.1c-0.6,0-1-0.4-1.1-0.9c0,0,0-0.1,0-0.1L170.5,44.1z M162.4,42.5v5.3h0.5v-4.3
	c0.4-0.4,1-0.6,1.6-0.5h0.5c0.6,0,1,0.4,1.1,0.9c0,0,0,0.1,0,0.1v3.8h0.5v-3.8c0.1-0.8-0.4-1.5-1.2-1.6c-0.1,0-0.3,0-0.4,0h-0.5
	c-0.6,0-1.2,0.1-1.6,0.5l-0.2-0.5H162.4z M155.4,44.1c-0.1-0.5,0.3-1,0.9-1.1c0.1,0,0.1,0,0.2,0h1.1c0.6,0,1,0.4,1.1,0.9
	c0,0,0,0.1,0,0.1v0.8h-3.2L155.4,44.1z M159.1,45.5v-1.3c0.1-0.8-0.4-1.5-1.2-1.6c-0.1,0-0.3,0-0.4,0h-1.1c-0.8-0.1-1.5,0.4-1.6,1.2
	c0,0.1,0,0.3,0,0.4v2.1c-0.1,0.8,0.4,1.5,1.2,1.6c0.1,0,0.3,0,0.4,0h2.4v-0.5h-2.4c-0.6,0-1-0.4-1.1-0.9c0,0,0-0.1,0-0.1v-0.8H159.1
	z M151,40.4v1.1h0.5v-1.1H151z M151,42.5v5.3h0.5v-5.3H151z M145.1,47.3c-0.6,0-1-0.4-1.1-0.9c0,0,0-0.1,0-0.1v-2.1
	c-0.1-0.5,0.3-1,0.9-1.1c0.1,0,0.2,0,0.2,0h0.5c0.6,0,1.2,0.1,1.6,0.5v3.2c-0.4,0.4-1,0.6-1.6,0.5L145.1,47.3z M147.2,40.3V43
	c-0.4-0.4-1-0.6-1.6-0.5h-0.5c-0.8-0.1-1.5,0.4-1.6,1.2c0,0.1,0,0.3,0,0.4v2.1c-0.1,0.8,0.4,1.5,1.2,1.6c0.1,0,0.3,0,0.4,0h0.5
	c0.6,0,1.2-0.1,1.6-0.5l0.2,0.5h0.4v-7.5L147.2,40.3z M140.2,47.8v-5.3h-0.5v4.3c-0.4,0.4-1,0.6-1.6,0.5h-0.5c-0.6,0-1-0.4-1.1-0.9
	c0,0,0-0.1,0-0.1v-3.8H136v3.8c-0.1,0.8,0.4,1.5,1.2,1.6c0.1,0,0.3,0,0.4,0h0.5c0.6,0,1.2-0.1,1.6-0.5l0.2,0.5L140.2,47.8z
	 M130.5,40.8l1.3,4.3h-2.6L130.5,40.8z M130.9,40.3h-0.9l-2.2,7.5h0.5l0.7-2.1h3l0.7,2.1h0.5L130.9,40.3z M116.5,40.3v7.5h0.5v-4.2
	c0.4-0.4,1-0.6,1.6-0.5h0.5c0.6,0,1,0.4,1.1,0.9c0,0,0,0.1,0,0.1v3.8h0.5v-3.8c0.1-0.8-0.4-1.5-1.2-1.6c-0.1,0-0.3,0-0.4,0h-0.5
	c-0.6,0-1.2,0.1-1.6,0.5v-2.7L116.5,40.3z M111.3,40.3l-0.5,0.5v1.6H110V43h0.8v3.2c-0.1,0.8,0.4,1.5,1.2,1.6c0.1,0,0.3,0,0.4,0h0.8
	v-0.5h-0.8c-0.6,0-1-0.4-1.1-0.9c0,0,0-0.1,0-0.1V43h1.9v-0.5h-1.8L111.3,40.3z M106.2,40.3v1.1h0.5v-1L106.2,40.3z M106.2,42.4v5.3
	h0.5v-5.3L106.2,42.4z M100,42.4h-0.5l-1.3,4.8l-1.3-4.8h-0.5l1.5,5.3h0.8l1.2-4.5l1.3,4.5h0.8l1.5-5.3h-0.5l-1.3,4.8L100,42.4z
	 M87.4,47.9c1.1,0,1.6-0.5,1.6-1.4v-0.2c0-0.9-0.5-1.4-1.6-1.4h-0.8c-0.7,0-1.1-0.2-1.1-0.8v-0.2c0-0.6,0.4-0.9,1.1-0.9H89v-0.5
	h-2.4c-1,0-1.6,0.5-1.6,1.4v0.2c0,0.9,0.5,1.3,1.6,1.3h0.8c0.7,0,1.1,0.3,1.1,0.9v0.2c0,0.6-0.4,0.9-1.1,0.9H85v0.5H87.4z M79,47.3
	c-0.6,0-1-0.4-1-1c0,0,0,0,0-0.1v-2.1c-0.1-0.5,0.3-1,0.9-1.1c0,0,0.1,0,0.1,0h0.5c0.6,0,1.2,0.1,1.6,0.5v3.2
	c-0.4,0.4-1,0.6-1.6,0.5L79,47.3z M81.1,40.3V43c-0.4-0.4-1-0.6-1.6-0.5H79c-0.8-0.1-1.5,0.4-1.6,1.2c0,0.1,0,0.3,0,0.4v2.1
	c-0.1,0.8,0.4,1.5,1.2,1.6c0.2,0,0.3,0,0.5,0h0.5c0.6,0,1.2-0.1,1.6-0.5l0.2,0.5h0.4v-7.5L81.1,40.3z M69.9,42.5v5.3h0.5v-4.3
	c0.4-0.4,1-0.6,1.6-0.6h0.5c0.6,0,1,0.4,1.1,0.9c0,0,0,0.1,0,0.1v3.8h0.5v-3.7c0.1-0.8-0.4-1.5-1.2-1.6c-0.1,0-0.3,0-0.4,0H72
	c-0.6,0-1.2,0.1-1.6,0.5l-0.2-0.5L69.9,42.5z M63.9,47.3c-0.6,0-1.1-0.5-1.1-1.1c0-0.6,0.5-1.1,1.1-1.1h0.5c0.6,0,1.2,0.1,1.6,0.5
	v1.1c-0.4,0.4-1,0.6-1.6,0.5L63.9,47.3z M66.1,45.2c-0.4-0.4-1-0.6-1.6-0.5h-0.5c-0.9,0.1-1.5,0.8-1.5,1.7c0.1,0.8,0.7,1.4,1.5,1.5
	h0.5c0.6,0,1.2-0.1,1.6-0.5l0.2,0.5h0.4v-3.2c0.1-1-0.6-2-1.6-2.1c-0.2,0-0.4,0-0.5,0h-1.6V43h1.6c0.8-0.1,1.5,0.4,1.6,1.2
	c0,0.1,0,0.3,0,0.4L66.1,45.2z M57.7,47.9v-4.3c0.4-0.4,1-0.6,1.6-0.6v-0.5c-0.6,0-1.2,0.1-1.6,0.5l-0.2-0.5h-0.4v5.3L57.7,47.9z
	 M52.3,44.4c0.6,0,1,0.4,1.1,0.9c0,0,0,0.1,0,0.1v0.8c0,0.6-0.4,1-0.9,1.1c0,0-0.1,0-0.1,0h-2.7v-2.9L52.3,44.4z M52.3,40.9
	c0.6,0,1,0.4,1.1,0.9c0,0.1,0,0.1,0,0.2v0.8c0,0.6-0.4,1-0.9,1.1c0,0-0.1,0-0.1,0h-2.7v-3L52.3,40.9z M49.1,40.4v7.5h3.2
	c0.8,0.1,1.5-0.4,1.6-1.2c0-0.1,0-0.3,0-0.4v-0.8c0-0.8-0.3-1.2-0.9-1.3c0.6-0.1,0.9-0.6,0.9-1.3V42c0.1-0.8-0.4-1.5-1.2-1.6
	c-0.1,0-0.3,0-0.4,0L49.1,40.4z M38.9,47.4c-0.6,0-1-0.4-1.1-0.9c0,0,0-0.1,0-0.1v-2.2c-0.1-0.5,0.3-1,0.9-1.1c0.1,0,0.1,0,0.2,0
	h0.5c0.6,0,1.2,0.1,1.6,0.5v3.2c-0.4,0.4-1,0.6-1.6,0.5L38.9,47.4z M39.4,50c1,0.1,2-0.6,2.1-1.6c0-0.2,0-0.4,0-0.5v-5.4h-0.4L41,43
	c-0.4-0.4-1-0.6-1.6-0.5h-0.5c-0.8-0.1-1.5,0.4-1.6,1.2c0,0.1,0,0.3,0,0.4v2.1c-0.1,0.8,0.4,1.5,1.2,1.6c0.1,0,0.3,0,0.4,0h0.5
	c0.6,0.1,1.2-0.1,1.6-0.5v0.5c0.1,0.8-0.4,1.5-1.2,1.6c-0.1,0-0.3,0-0.4,0h-1.6V50H39.4z M29.7,42.5v5.3h0.5v-4.3
	c0.4-0.4,1-0.6,1.6-0.6h0.5c0.6,0,1,0.4,1.1,0.9c0,0,0,0.1,0,0.1v3.8H34v-3.7c0.1-0.8-0.4-1.5-1.2-1.6c-0.1,0-0.3,0-0.4,0h-0.5
	c-0.6,0-1.2,0.1-1.6,0.5l-0.2-0.5L29.7,42.5z M25.9,40.4v1.1h0.5v-1.1H25.9z M25.9,42.5v5.3h0.5v-5.3H25.9z M20.8,40.4l-0.5,0.5v1.6
	h-0.8V43h0.8v3.2c-0.1,0.8,0.4,1.5,1.2,1.6c0.1,0,0.3,0,0.4,0h0.8v-0.5h-0.8c-0.6,0-1-0.4-1.1-0.9c0,0,0-0.1,0-0.1V43h1.9v-0.5h-1.9
	L20.8,40.4z M15.6,40.4v1.1h0.5v-1.1H15.6z M15.6,42.5v5.3h0.5v-5.3H15.6z M8.1,42.5v5.3h0.5v-4.3c0.4-0.4,1-0.6,1.6-0.6h0.5
	c0.6,0,1,0.4,1.1,0.9c0,0,0,0.1,0,0.1v3.8h0.5v-3.7c0.1-0.8-0.4-1.5-1.2-1.6c-0.1,0-0.3,0-0.4,0h-0.5c-0.6-0.1-1.2,0.1-1.6,0.5
	l-0.2-0.5L8.1,42.5z M0,40.4v5.9c-0.1,0.8,0.4,1.5,1.2,1.6c0.1,0,0.3,0,0.4,0h1.6C4,48,4.7,47.4,4.8,46.7c0-0.1,0-0.3,0-0.4v-5.9
	H4.3v5.9c0,0.6-0.4,1-0.9,1.1c0,0-0.1,0-0.1,0H1.6c-0.6,0-1-0.4-1.1-0.9c0-0.1,0-0.1,0-0.2v-5.9H0z"/>
<g>
	<path d="M197.2,39.5c0,1.3-1,2.3-2.4,2.3c-1.3,0-2.4-1-2.4-2.3c0-1.3,1.1-2.3,2.4-2.3C196.1,37.2,197.2,38.3,197.2,39.5z M193,39.5
		c0,1,0.8,1.8,1.8,1.8c1,0,1.8-0.8,1.8-1.8c0-1-0.7-1.8-1.8-1.8S193,38.5,193,39.5z M194.4,40.7h-0.5v-2.3c0.2,0,0.5-0.1,0.9-0.1
		c0.4,0,0.6,0.1,0.8,0.2c0.1,0.1,0.2,0.3,0.2,0.5c0,0.3-0.2,0.4-0.5,0.5v0c0.2,0.1,0.4,0.3,0.4,0.6c0.1,0.4,0.1,0.5,0.2,0.6h-0.6
		c-0.1-0.1-0.1-0.3-0.2-0.6c0-0.3-0.2-0.4-0.5-0.4h-0.3V40.7z M194.5,39.4h0.3c0.3,0,0.5-0.1,0.5-0.3c0-0.2-0.2-0.3-0.5-0.3
		c-0.1,0-0.2,0-0.3,0V39.4z"/>
</g>
</svg>
